<svg width="70" height="70" viewBox="0 0 70 70" fill="none" xmlns="http://www.w3.org/2000/svg">
<g id="round-done-button">
<path id="Shape" fill-rule="evenodd" clip-rule="evenodd" d="M0 35C0 15.701 15.6998 0 34.9993 0C54.2988 0 70 15.701 70 35C70 54.299 54.2988 70 34.9993 70C15.6998 70 0 54.299 0 35ZM4.59025 35C4.59025 51.7678 18.2315 65.4098 34.9993 65.4098C51.7671 65.4098 65.4094 51.7678 65.4092 35C65.4092 18.2322 51.7673 4.59043 34.9993 4.59043C18.2313 4.59043 4.59025 18.232 4.59025 35Z" fill="#26C6DA"/>
<path id="Shape_2" d="M48.142 23.7114L30.0324 41.4919L22.7119 34.3057C21.8123 33.4234 20.3551 33.4229 19.4555 34.3062C18.5555 35.1898 18.5555 36.6208 19.4555 37.5041L28.4044 46.2895C28.8542 46.7306 29.4433 46.9513 30.0324 46.9513C30.6215 46.9513 31.2123 46.7306 31.6618 46.2888C31.6632 46.287 31.6642 46.2851 31.6665 46.2828L51.3982 26.9089C52.2982 26.0261 52.2982 24.594 51.3982 23.7113C50.4988 22.828 49.0405 22.828 48.142 23.7114Z" fill="#26C6DA"/>
</g>
</svg>
